<svg width="32" height="32" viewBox="0 0 32 32" fill="none" xmlns="http://www.w3.org/2000/svg">
  <!-- Gradient definition -->
  <defs>
    <linearGradient id="codeCloudGradient" x1="0%" y1="0%" x2="100%" y2="100%">
      <stop offset="0%" style="stop-color:#00FF41;stop-opacity:1" />
      <stop offset="100%" style="stop-color:#39FF14;stop-opacity:1" />
    </linearGradient>
  </defs>
  
  <!-- Cloud shape -->
  <path d="M8 18C5.79 18 4 16.21 4 14C4 12.12 5.38 10.57 7.2 10.18C7.08 9.85 7 9.49 7 9.11C7 6.86 8.86 5 11 5C12.46 5 13.74 5.8 14.35 7.02C15.09 6.37 16.08 6 17.17 6C19.75 6 21.83 8.08 21.83 10.67C21.83 10.84 21.82 11.01 21.81 11.17C23.93 11.39 25.5 13.27 25.5 15.5C25.5 17.98 23.48 20 21 20H8Z" fill="url(#codeCloudGradient)"/>
  
  <!-- Code brackets inside cloud -->
  <g transform="translate(8, 12)" stroke="white" stroke-width="1.2" stroke-linecap="round" stroke-linejoin="round" fill="none">
    <!-- Left bracket < -->
    <path d="M2 2L4 4L2 6" />
    <!-- Right bracket > -->
    <path d="M6 2L4 4L6 6" />
  </g>
</svg>
